<svg width="21" height="21" viewBox="0 0 21 21" fill="none" xmlns="http://www.w3.org/2000/svg">
<path fill-rule="evenodd" clip-rule="evenodd" d="M2.5 10.667C2.50014 9.12744 2.94451 7.62064 3.77979 6.32738C4.61506 5.03411 5.80576 4.00934 7.20901 3.37601C8.61225 2.74268 10.1684 2.5277 11.6908 2.75687C13.2132 2.98603 14.6372 3.64962 15.7918 4.66798C16.9464 5.68635 17.7826 7.01625 18.2002 8.4981C18.6177 9.97995 18.5988 11.5508 18.1457 13.0222C17.6926 14.4935 16.8246 15.8029 15.6458 16.7932C14.467 17.7834 13.0275 18.4125 11.5 18.605V12.667H13.5C13.7652 12.667 14.0196 12.5616 14.2071 12.3741C14.3946 12.1866 14.5 11.9322 14.5 11.667C14.5 11.4018 14.3946 11.1474 14.2071 10.9599C14.0196 10.7723 13.7652 10.667 13.5 10.667H11.5V8.66699C11.5 8.40178 11.6054 8.14742 11.7929 7.95989C11.9804 7.77235 12.2348 7.66699 12.5 7.66699H13C13.2652 7.66699 13.5196 7.56164 13.7071 7.3741C13.8946 7.18656 14 6.93221 14 6.66699C14 6.40178 13.8946 6.14742 13.7071 5.95989C13.5196 5.77235 13.2652 5.66699 13 5.66699H12.5C11.7044 5.66699 10.9413 5.98306 10.3787 6.54567C9.81607 7.10828 9.5 7.87134 9.5 8.66699V10.667H7.5C7.23478 10.667 6.98043 10.7723 6.79289 10.9599C6.60536 11.1474 6.5 11.4018 6.5 11.667C6.5 11.9322 6.60536 12.1866 6.79289 12.3741C6.98043 12.5616 7.23478 12.667 7.5 12.667H9.5V18.605C7.56661 18.3614 5.78861 17.4205 4.49975 15.959C3.2109 14.4974 2.49982 12.6157 2.5 10.667ZM10.5 20.667C16.023 20.667 20.5 16.19 20.5 10.667C20.5 5.14399 16.023 0.666992 10.5 0.666992C4.977 0.666992 0.5 5.14399 0.5 10.667C0.5 16.19 4.977 20.667 10.5 20.667Z" fill="#464F60" fill-opacity="0.8"/>
</svg>
