<svg width="21" height="21" viewBox="0 0 21 21" fill="none" xmlns="http://www.w3.org/2000/svg">
<path d="M6.3 0.666992H14.7C17.9 0.666992 20.5 3.26699 20.5 6.46699V14.867C20.5 16.4052 19.8889 17.8805 18.8012 18.9682C17.7135 20.0559 16.2383 20.667 14.7 20.667H6.3C3.1 20.667 0.5 18.067 0.5 14.867V6.46699C0.5 4.92874 1.11107 3.45348 2.19878 2.36577C3.28649 1.27806 4.76174 0.666992 6.3 0.666992ZM6.1 2.66699C5.14522 2.66699 4.22955 3.04628 3.55442 3.72141C2.87928 4.39654 2.5 5.31221 2.5 6.26699V15.067C2.5 17.057 4.11 18.667 6.1 18.667H14.9C15.8548 18.667 16.7705 18.2877 17.4456 17.6126C18.1207 16.9374 18.5 16.0218 18.5 15.067V6.26699C18.5 4.27699 16.89 2.66699 14.9 2.66699H6.1ZM15.75 4.16699C16.0815 4.16699 16.3995 4.29869 16.6339 4.53311C16.8683 4.76753 17 5.08547 17 5.41699C17 5.74851 16.8683 6.06646 16.6339 6.30088C16.3995 6.5353 16.0815 6.66699 15.75 6.66699C15.4185 6.66699 15.1005 6.5353 14.8661 6.30088C14.6317 6.06646 14.5 5.74851 14.5 5.41699C14.5 5.08547 14.6317 4.76753 14.8661 4.53311C15.1005 4.29869 15.4185 4.16699 15.75 4.16699ZM10.5 5.66699C11.8261 5.66699 13.0979 6.19378 14.0355 7.13146C14.9732 8.06914 15.5 9.34091 15.5 10.667C15.5 11.9931 14.9732 13.2648 14.0355 14.2025C13.0979 15.1402 11.8261 15.667 10.5 15.667C9.17392 15.667 7.90215 15.1402 6.96447 14.2025C6.02678 13.2648 5.5 11.9931 5.5 10.667C5.5 9.34091 6.02678 8.06914 6.96447 7.13146C7.90215 6.19378 9.17392 5.66699 10.5 5.66699ZM10.5 7.66699C9.70435 7.66699 8.94129 7.98306 8.37868 8.54567C7.81607 9.10828 7.5 9.87134 7.5 10.667C7.5 11.4626 7.81607 12.2257 8.37868 12.7883C8.94129 13.3509 9.70435 13.667 10.5 13.667C11.2956 13.667 12.0587 13.3509 12.6213 12.7883C13.1839 12.2257 13.5 11.4626 13.5 10.667C13.5 9.87134 13.1839 9.10828 12.6213 8.54567C12.0587 7.98306 11.2956 7.66699 10.5 7.66699Z" fill="#464F60" fill-opacity="0.8"/>
</svg>
