<svg width="19" height="19" viewBox="0 0 19 19" fill="none" xmlns="http://www.w3.org/2000/svg">
<path d="M15.5 0.666992C16.2956 0.666992 17.0587 0.983063 17.6213 1.54567C18.1839 2.10828 18.5 2.87134 18.5 3.66699V15.667C18.5 16.4626 18.1839 17.2257 17.6213 17.7883C17.0587 18.3509 16.2956 18.667 15.5 18.667H3.5C2.70435 18.667 1.94129 18.3509 1.37868 17.7883C0.816071 17.2257 0.5 16.4626 0.5 15.667V3.66699C0.5 2.87134 0.816071 2.10828 1.37868 1.54567C1.94129 0.983063 2.70435 0.666992 3.5 0.666992H15.5ZM15.5 2.66699H3.5C3.23478 2.66699 2.98043 2.77235 2.79289 2.95989C2.60536 3.14742 2.5 3.40178 2.5 3.66699V15.667C2.5 15.9322 2.60536 16.1866 2.79289 16.3741C2.98043 16.5616 3.23478 16.667 3.5 16.667H15.5C15.7652 16.667 16.0196 16.5616 16.2071 16.3741C16.3946 16.1866 16.5 15.9322 16.5 15.667V3.66699C16.5 3.40178 16.3946 3.14742 16.2071 2.95989C16.0196 2.77235 15.7652 2.66699 15.5 2.66699ZM5.5 7.66699C5.74493 7.66702 5.98134 7.75695 6.16437 7.91971C6.34741 8.08247 6.46434 8.30674 6.493 8.54999L6.5 8.66699V13.667C6.49972 13.9219 6.40212 14.167 6.22715 14.3524C6.05218 14.5377 5.81305 14.6492 5.55861 14.6642C5.30416 14.6791 5.05362 14.5963 4.85817 14.4327C4.66271 14.2691 4.5371 14.0371 4.507 13.784L4.5 13.667V8.66699C4.5 8.40178 4.60536 8.14742 4.79289 7.95989C4.98043 7.77235 5.23478 7.66699 5.5 7.66699ZM8.5 6.66699C8.73419 6.66696 8.96097 6.74912 9.1408 6.89915C9.32062 7.04919 9.44208 7.25758 9.484 7.48799C9.68542 7.37167 9.89344 7.26716 10.107 7.17499C10.774 6.88999 11.773 6.73299 12.675 7.01599C13.148 7.16599 13.623 7.44599 13.975 7.92299C14.29 8.34799 14.46 8.86499 14.494 9.44599L14.5 9.66699V13.667C14.4997 13.9219 14.4021 14.167 14.2272 14.3524C14.0522 14.5377 13.813 14.6492 13.5586 14.6642C13.3042 14.6791 13.0536 14.5963 12.8582 14.4327C12.6627 14.2691 12.5371 14.0371 12.507 13.784L12.5 13.667V9.66699C12.5 9.33699 12.42 9.18299 12.368 9.11199C12.2933 9.01925 12.1904 8.95328 12.075 8.92399C11.727 8.81399 11.226 8.87199 10.893 9.01399C10.393 9.22799 9.935 9.56399 9.623 9.87499L9.5 10.007V13.667C9.49972 13.9219 9.40212 14.167 9.22715 14.3524C9.05218 14.5377 8.81305 14.6492 8.55861 14.6642C8.30416 14.6791 8.05362 14.5963 7.85817 14.4327C7.66271 14.2691 7.5371 14.0371 7.507 13.784L7.5 13.667V7.66699C7.5 7.40178 7.60536 7.14742 7.79289 6.95989C7.98043 6.77235 8.23478 6.66699 8.5 6.66699ZM5.5 4.66699C5.76522 4.66699 6.01957 4.77235 6.20711 4.95989C6.39464 5.14742 6.5 5.40178 6.5 5.66699C6.5 5.93221 6.39464 6.18656 6.20711 6.3741C6.01957 6.56164 5.76522 6.66699 5.5 6.66699C5.23478 6.66699 4.98043 6.56164 4.79289 6.3741C4.60536 6.18656 4.5 5.93221 4.5 5.66699C4.5 5.40178 4.60536 5.14742 4.79289 4.95989C4.98043 4.77235 5.23478 4.66699 5.5 4.66699Z" fill="#464F60" fill-opacity="0.8"/>
</svg>
