<svg width="21" height="17" viewBox="0 0 21 17" fill="none" xmlns="http://www.w3.org/2000/svg">
<path d="M18.107 3.66199C18.031 3.36399 17.815 3.13899 17.568 3.06999C17.13 2.94699 15.001 2.66699 10.501 2.66699C6.001 2.66699 3.873 2.94699 3.432 3.06999C3.188 3.13799 2.972 3.36299 2.895 3.66199C2.786 4.08599 2.501 5.86199 2.501 8.66699C2.501 11.472 2.786 13.247 2.895 13.673C2.971 13.97 3.187 14.195 3.433 14.263C3.873 14.387 6 14.667 10.5 14.667C15 14.667 17.129 14.387 17.569 14.264C17.813 14.196 18.029 13.971 18.106 13.672C18.216 13.248 18.5 11.467 18.5 8.66699C18.5 5.86699 18.216 4.08699 18.107 3.66199ZM20.043 3.16499C20.5 4.94699 20.5 8.66699 20.5 8.66699C20.5 8.66699 20.5 12.387 20.043 14.169C19.789 15.154 19.046 15.929 18.105 16.191C16.397 16.667 10.5 16.667 10.5 16.667C10.5 16.667 4.607 16.667 2.895 16.191C1.95 15.925 1.208 15.151 0.957 14.169C0.5 12.387 0.5 8.66699 0.5 8.66699C0.5 8.66699 0.5 4.94699 0.957 3.16499C1.211 2.17999 1.954 1.40499 2.895 1.14299C4.608 0.666992 10.501 0.666992 10.501 0.666992C10.501 0.666992 16.397 0.666992 18.106 1.14299C19.05 1.40899 19.793 2.18299 20.044 3.16499M8.501 12.167V5.16699L14.501 8.66699L8.501 12.167Z" fill="#464F60" fill-opacity="0.8"/>
</svg>
